<?xml version="1.0" encoding="utf-8"?>
<!-- Generator: Adobe Illustrator 24.0.1, SVG Export Plug-In . SVG Version: 6.00 Build 0)  -->
<svg version="1.1" id="Capa_1" xmlns="http://www.w3.org/2000/svg" xmlns:xlink="http://www.w3.org/1999/xlink" x="0px" y="0px"
	 viewBox="0 0 128 128" style="enable-background:new 0 0 128 128;" xml:space="preserve">
<style type="text/css">
	.st0{fill:#FFFFFF;}
</style>
<g id="g4158" transform="matrix(4.4299631,0,0,4.4299631,-81.165783,-105.04783)">
	<polygon id="polygon9" class="st0" points="30.8,42.7 28.5,42.7 30,33.6 32.3,33.6 	"/>
	<path id="path11" class="st0" d="M39.3,33.9c-0.5-0.2-1.2-0.4-2.1-0.4c-2.3,0-3.9,1.2-3.9,3c0,1.3,1.2,2,2.1,2.5
		c0.9,0.4,1.2,0.7,1.2,1.1c0,0.6-0.7,0.9-1.4,0.9c-0.9,0-1.4-0.1-2.2-0.5l-0.3-0.1l-0.3,2c0.5,0.3,1.6,0.5,2.6,0.5
		c2.5,0,4.1-1.2,4.1-3.1c0-1-0.6-1.8-2-2.5c-0.8-0.4-1.3-0.7-1.3-1.1c0-0.4,0.4-0.8,1.3-0.8c0.8,0,1.3,0.2,1.7,0.3l0.2,0.1
		L39.3,33.9L39.3,33.9z"/>
	<path id="path13" class="st0" d="M42.4,39.5c0.2-0.5,0.9-2.5,0.9-2.5c0,0,0.2-0.5,0.3-0.9l0.2,0.8c0,0,0.4,2.2,0.5,2.6
		C44,39.5,42.9,39.5,42.4,39.5L42.4,39.5z M45.3,33.6h-1.8c-0.6,0-1,0.2-1.2,0.8l-3.5,8.3h2.5c0,0,0.4-1.1,0.5-1.4c0.3,0,2.7,0,3,0
		c0.1,0.3,0.3,1.4,0.3,1.4h2.2L45.3,33.6L45.3,33.6L45.3,33.6z"/>
	<path id="path15" class="st0" d="M26.5,33.6l-2.3,6.2L24,38.6c-0.4-1.4-1.8-3-3.2-3.8l2.1,7.9h2.5l3.7-9L26.5,33.6L26.5,33.6
		L26.5,33.6z"/>
	<path id="path17" class="st0" d="M22.1,33.6h-3.8l0,0.2c2.9,0.8,4.9,2.6,5.7,4.7l-0.8-4.2C23.1,33.8,22.6,33.7,22.1,33.6L22.1,33.6
		z"/>
</g>
</svg>
