<?xml version="1.0" encoding="utf-8"?>
<!-- Generator: Adobe Illustrator 24.0.1, SVG Export Plug-In . SVG Version: 6.00 Build 0)  -->
<svg version="1.1" id="Capa_1" xmlns="http://www.w3.org/2000/svg" xmlns:xlink="http://www.w3.org/1999/xlink" x="0px" y="0px"
	 viewBox="0 0 128 128" style="enable-background:new 0 0 128 128;" xml:space="preserve">
<style type="text/css">
	.st0{fill-rule:evenodd;clip-rule:evenodd;fill:#DBA32F;}
	.st1{fill-rule:evenodd;clip-rule:evenodd;fill:#FFFFFF;}
	.st2{fill-rule:evenodd;clip-rule:evenodd;fill:#C10E1A;}
</style>
<g>
	<path class="st0" d="M0,38.5c0-2.2,1.8-4,4-4h120c2.2,0,4,1.8,4,4v51c0,2.2-1.8,4-4,4H4c-2.2,0-4-1.8-4-4V38.5L0,38.5z"/>
	<polygon class="st1" points="0,40.3 128,40.3 128,87.7 0,87.7 0,40.3 	"/>
	<path class="st2" d="M108.5,52.6c-5.9,0-10.6,4.8-10.6,10.6c0,5.9,4.8,10.6,10.6,10.6c5.9,0,10.6-4.8,10.6-10.6
		C119.1,57.4,114.3,52.6,108.5,52.6L108.5,52.6z"/>
	<path class="st2" d="M20.9,52.6c-5.9,0-10.6,4.8-10.6,10.6c0,5.9,4.8,10.6,10.6,10.6c5.9,0,10.6-4.8,10.6-10.6
		C31.5,57.4,26.7,52.6,20.9,52.6L20.9,52.6z"/>
	<path class="st2" d="M107.6,43.3c-9.8-0.2-14.5,6.1-21.2,13.9l-6.3,7.3l10,12c2.4,3.7-2.2,7.4-5,4l-9.3-11.1l-9,10.5
		c-2.9,3.3-7.4-0.4-4.9-4l9.8-11.4l-6.4-7.7l4.1-5.1l6.5,7.9l5.6-6.6c2.8-3.2,5.6-7.5,9.2-9.7H0v41.5h21.2c9.8,0,14.3-5.9,20.8-13.8
		l6.2-7.5L37.9,51.7c-2.5-3.6,2-7.4,4.9-4.1l9.5,10.8l8.8-10.7c2.8-3.4,7.4,0.2,5,3.9l-9.5,11.6l6.6,7.5l-4.2,4.9l-6.6-7.4L47,75
		c-2.7,3.3-5.4,7.5-9,9.7h90V43.3H107.6L107.6,43.3z M37.7,63.2c0,9.3-7.5,16.8-16.8,16.8c-9.3,0-16.8-7.5-16.8-16.8
		c0-9.3,7.5-16.8,16.8-16.8C30.1,46.4,37.7,54,37.7,63.2L37.7,63.2z M108.5,80c-9.3,0-16.8-7.5-16.8-16.8c0-9.3,7.5-16.8,16.8-16.8
		c9.3,0,16.8,7.5,16.8,16.8C125.3,72.5,117.7,80,108.5,80L108.5,80z"/>
</g>
</svg>
