<?xml version="1.0" encoding="utf-8"?>
<!-- Generator: Adobe Illustrator 24.0.1, SVG Export Plug-In . SVG Version: 6.00 Build 0)  -->
<svg version="1.1" id="Capa_1" xmlns="http://www.w3.org/2000/svg" xmlns:xlink="http://www.w3.org/1999/xlink" x="0px" y="0px"
	 viewBox="0 0 128 128" style="enable-background:new 0 0 128 128;" xml:space="preserve">
<style type="text/css">
	.st0{fill:#FFFFFF;}
	.st1{fill:#D4D4D4;}
	.st2{fill:#E3A330;}
	.st3{fill:#32599A;}
</style>
<g>
	<path class="st0" d="M102.4,56.7c-0.4,1.2-1.2,3.1-1.1,3c0,0-2.6,6.8-3.3,8.6h6.9c-0.4-1.6-2-8.9-2-8.9L102.4,56.7z"/>
	<path class="st0" d="M117.3,30.9H10.7c-5,0-9.1,4.1-9.1,9.1V88c0,5,4.1,9.1,9.1,9.1h106.6c5,0,9.1-4.1,9.1-9.1V40
		C126.4,35,122.3,30.9,117.3,30.9z M28,79.1l-7.4-26.7C18,51,15,49.9,11.7,49l0.1-0.7h13.5c1.8,0.1,3.3,0.7,3.8,2.6L32,65
		c0,0,0,0.1,0,0.1l0.9,4.3l8.2-21H50L36.8,79.1H28z M56.6,79.2h-8.4l5.3-30.8h8.3L56.6,79.2z M71.2,79.5c-3.7-0.1-7.4-0.8-9.3-1.7
		l1.2-6.9l1.1,0.5c2.7,1.2,4.5,1.7,7.8,1.7c2.5,0,5-0.9,5-3c0-1.3-1.1-2.3-4.4-3.8c-3.2-1.5-7.4-4-7.4-8.3c0-5.9,5.9-10.2,14.1-10.2
		c3.2,0,5.9,0.7,7.5,1.3l-1.1,6.6l-0.7-0.3c-1.6-0.6-3.6-1.2-6.3-1.2c-3.3,0-4.8,1.4-4.8,2.6c0,1.4,1.8,2.4,4.7,3.8
		c4.8,2.1,7,4.9,7,8.3C85.7,75.4,80,79.5,71.2,79.5z M107.3,79.2c0,0-0.7-3.6-1-4.6c-1.2,0-9.7,0-10.7,0c-0.3,0.8-1.7,4.6-1.7,4.6
		h-8.8l12.5-28.3c0.9-2,2.4-2.6,4.4-2.6h6.4l6.7,30.8H107.3z"/>
	<path class="st1" d="M117.3,29.3H10.7C4.8,29.3,0,34.1,0,40V88c0,5.9,4.8,10.7,10.7,10.7h106.6c5.9,0,10.7-4.8,10.7-10.7V40
		C128,34.1,123.2,29.3,117.3,29.3z M126.4,88c0,5-4.1,9.1-9.1,9.1H10.7c-5,0-9.1-4.1-9.1-9.1V40c0-5,4.1-9.1,9.1-9.1h106.6
		c5,0,9.1,4.1,9.1,9.1V88z"/>
	<path class="st2" d="M32,65L29.1,51c-0.5-2-2-2.6-3.8-2.6H11.8L11.7,49c3.3,0.8,6.2,2,8.8,3.4l-0.1-0.3C25.7,54.8,30.5,60,32,65z"
		/>
	<path class="st3" d="M41.1,48.4l-8.2,21L32,65.1c0,0,0-0.1,0-0.1c-1.5-4.9-6.3-10.2-11.5-12.8l0.1,0.3L28,79.1h8.8L50,48.4H41.1z"
		/>
	<polygon class="st3" points="48.1,79.2 56.6,79.2 61.8,48.4 53.4,48.4 	"/>
	<path class="st3" d="M101.9,48.4c-2,0-3.5,0.6-4.4,2.6L85.1,79.2h8.8c0,0,1.4-3.8,1.7-4.6c1,0,9.5,0,10.7,0c0.2,1.1,1,4.6,1,4.6
		h7.8l-6.7-30.8H101.9z M98,68.3c0.7-1.8,3.3-8.6,3.3-8.6c-0.1,0.1,0.7-1.8,1.1-3l0.6,2.6c0,0,1.6,7.4,2,8.9H98z"/>
	<path class="st3" d="M78.7,60.7c-2.9-1.4-4.7-2.4-4.7-3.8c0-1.2,1.5-2.6,4.8-2.6c2.7,0,4.7,0.6,6.3,1.2l0.7,0.3l1.1-6.6
		c-1.7-0.7-4.3-1.3-7.5-1.3c-8.3,0-14.1,4.2-14.1,10.2c-0.1,4.4,4.1,6.9,7.4,8.3c3.3,1.5,4.4,2.5,4.4,3.8c0,2.1-2.6,3-5,3
		c-3.3,0-5.1-0.5-7.8-1.7L63,70.9l-1.2,6.9c2,0.8,5.6,1.6,9.3,1.7c8.8,0,14.5-4.1,14.5-10.5C85.7,65.6,83.5,62.8,78.7,60.7z"/>
</g>
</svg>
