<?xml version="1.0" encoding="utf-8"?>
<!-- Generator: Adobe Illustrator 24.0.1, SVG Export Plug-In . SVG Version: 6.00 Build 0)  -->
<svg version="1.1" id="Capa_1" xmlns="http://www.w3.org/2000/svg" xmlns:xlink="http://www.w3.org/1999/xlink" x="0px" y="0px"
	 viewBox="0 0 128 128" style="enable-background:new 0 0 128 128;" xml:space="preserve">
<style type="text/css">
	.st0{fill:#FFFFFF;}
	.st1{fill:#D4D4D4;}
	.st2{fill:#363636;}
	.st3{fill:#DE5F16;}
	.st4{fill:#C80220;}
	.st5{fill:#E09C2F;}
</style>
<g>
	<path class="st0" d="M89.8,84c-1,0-1.6,0.7-1.6,1.7s0.6,1.7,1.6,1.7c0.9,0,1.6-0.7,1.6-1.7C91.3,84.7,90.7,84,89.8,84z"/>
	<path class="st0" d="M47.7,84c-1,0-1.6,0.7-1.6,1.7s0.6,1.7,1.6,1.7c0.9,0,1.6-0.7,1.6-1.7C49.3,84.7,48.6,84,47.7,84z"/>
	<path class="st0" d="M79.4,84c-1,0-1.6,0.7-1.6,1.7s0.6,1.7,1.6,1.7c0.9,0,1.6-0.7,1.6-1.7C80.9,84.7,80.3,84,79.4,84z"/>
	<path class="st0" d="M64.2,83.9c-0.8,0-1.2,0.6-1.4,1.2h2.7C65.4,84.3,64.9,83.9,64.2,83.9z"/>
	<path class="st0" d="M117.3,30.9H10.7c-5,0-9.1,4.1-9.1,9.1V88c0,5,4.1,9.1,9.1,9.1h106.6c5,0,9.1-4.1,9.1-9.1V40
		C126.4,35,122.3,30.9,117.3,30.9z M44,88.2h-1.2v-2.8c0-0.8-0.4-1.3-1.2-1.3c-0.7,0-1.2,0.4-1.2,1.3v2.8h-1.2v-2.8
		c0-0.8-0.4-1.3-1.2-1.3c-0.7,0-1.2,0.4-1.2,1.3v2.8h-1.2V83h1.2v0.7c0.4-0.6,0.9-0.7,1.5-0.7c0.8,0,1.3,0.3,1.7,0.9
		c0.5-0.7,1.2-0.9,1.8-0.9c1.3,0,2.1,0.8,2.1,2.1V88.2z M50.4,85.6v2.7h-1.2v-0.7c-0.3,0.5-0.9,0.7-1.7,0.7c-1.4,0-2.6-1.2-2.6-2.7
		c0-1.6,1.1-2.7,2.6-2.7c0.7,0,1.2,0.2,1.7,0.7v-0.7h1.2V85.6z M53.7,88.4c-0.8,0-1.7-0.2-2.2-0.7l0.6-0.9c0.4,0.3,1,0.6,1.7,0.6
		c0.7,0,1.2-0.2,1.2-0.7c0-0.3-0.3-0.5-0.9-0.6l-0.6-0.1c-1.2-0.2-1.8-0.6-1.8-1.5c0-1,0.8-1.7,2.1-1.7c0.7,0,1.5,0.2,2.1,0.6
		l-0.3,0.9c-0.3-0.2-1-0.4-1.7-0.4c-0.6,0-1,0.2-1,0.6c0,0.3,0.3,0.4,0.8,0.5l0.6,0.1c1.2,0.2,1.8,0.7,1.8,1.6
		C56.1,87.7,55.2,88.4,53.7,88.4z M59.6,88.4c-1.3,0-1.8-0.7-1.8-1.9v-2.4h-1v-1h1v-1.6H59v1.6h1.8v1H59v2.3c0,0.5,0.2,0.8,0.7,0.8
		c0.3,0,0.7,0,1-0.2l0.3,1C60.6,88.2,60.1,88.4,59.6,88.4z M66.6,85.9c0,0.2,0,0.2,0,0.4h-3.8c0.2,0.9,0.9,1.2,1.6,1.2
		c0.5,0,1.1-0.2,1.5-0.6l0.6,0.8c-0.6,0.4-1.3,0.7-2.1,0.7c-1.6,0-2.6-1.1-2.6-2.7c0-1.7,1.1-2.7,2.6-2.7
		C65.7,83,66.7,84.1,66.6,85.9z M70.8,84.2c-0.2,0-0.4-0.1-0.7-0.1c-0.7,0-1.1,0.4-1.1,1.3v2.9h-1.2v-5.2H69v0.7
		c0.2-0.4,0.7-0.7,1.3-0.7c0.2,0,0.5,0,0.7,0.1L70.8,84.2z M74.2,87.4c0.5,0,0.9-0.2,1.3-0.5l0.6,0.9c-0.5,0.4-1.1,0.6-1.8,0.6
		c-1.7,0-2.7-1.2-2.7-2.7c0-1.6,1.1-2.6,2.7-2.6c0.7,0,1.2,0.2,1.8,0.6l-0.6,0.9c-0.4-0.3-0.8-0.5-1.3-0.5c-0.9,0-1.6,0.7-1.6,1.7
		C72.6,86.7,73.3,87.4,74.2,87.4z M81.9,85.6v2.7h-1.2v-0.7c-0.3,0.5-0.9,0.7-1.7,0.7c-1.4,0-2.6-1.2-2.6-2.7c0-1.6,1.1-2.7,2.6-2.7
		c0.7,0,1.2,0.2,1.7,0.7v-0.7h1.2V85.6z M86.3,84.2c-0.2,0-0.4-0.1-0.7-0.1c-0.7,0-1.1,0.4-1.1,1.3v2.9h-1.2v-5.2h1.2v0.7
		c0.2-0.4,0.7-0.7,1.3-0.7c0.2,0,0.6,0,0.7,0.1L86.3,84.2z M92.3,85.6v2.7h-1.2v-0.7c-0.3,0.5-0.9,0.7-1.7,0.7
		c-1.4,0-2.6-1.2-2.6-2.7c0-1.6,1.1-2.7,2.6-2.7c0.7,0,1.2,0.2,1.7,0.7V81h1.2V85.6z M76,78.5c-4.5,0-8.7-1.6-12-4.1
		c-3.3,2.6-7.4,4.1-12,4.1c-10.7,0-19.5-8.7-19.5-19.4c0-10.7,8.7-19.4,19.4-19.4c4.5,0,8.7,1.6,12,4.1H64c3.3-2.6,7.4-4.1,12-4.1
		c10.7,0,19.4,8.8,19.4,19.4C95.4,69.8,86.7,78.5,76,78.5z"/>
	<path class="st0" d="M63.9,74.2C63.9,74.3,64,74.3,63.9,74.2c0.1,0.1,0.2,0,0.2,0H63.9z"/>
	<path class="st1" d="M117.3,29.3H10.7C4.8,29.3,0,34.1,0,40V88c0,5.9,4.8,10.7,10.7,10.7h106.6c5.9,0,10.7-4.8,10.7-10.7V40
		C128,34.1,123.2,29.3,117.3,29.3z M126.4,88c0,5-4.1,9.1-9.1,9.1H10.7c-5,0-9.1-4.1-9.1-9.1V40c0-5,4.1-9.1,9.1-9.1h106.6
		c5,0,9.1,4.1,9.1,9.1V88z"/>
	<path class="st2" d="M69,83.7v-0.7h-1.2v5.2H69v-2.9c0-0.9,0.4-1.3,1.1-1.3c0.2,0,0.5,0.1,0.7,0.1l0.3-1.1C70.9,83,70.6,83,70.4,83
		C69.7,83,69.3,83.3,69,83.7z"/>
	<path class="st2" d="M74.2,84.1c0.5,0,0.9,0.2,1.3,0.5l0.6-0.9c-0.6-0.4-1.1-0.6-1.8-0.6c-1.7-0.1-2.7,1-2.7,2.6
		c0,1.6,1.1,2.7,2.7,2.7c0.7,0,1.3-0.2,1.8-0.6l-0.6-0.9c-0.4,0.3-0.8,0.5-1.3,0.5c-0.9,0-1.6-0.7-1.6-1.7
		C72.6,84.7,73.3,84.1,74.2,84.1z"/>
	<path class="st2" d="M80.8,83.7c-0.4-0.5-0.9-0.7-1.7-0.7c-1.5,0-2.6,1.2-2.6,2.7c0,1.6,1.2,2.7,2.6,2.7c0.7,0,1.3-0.2,1.7-0.7v0.7
		h1.2v-2.7v-2.6h-1.2V83.7z M79.4,87.3c-1,0-1.6-0.7-1.6-1.7s0.6-1.7,1.6-1.7c0.9,0,1.6,0.7,1.6,1.7C80.9,86.6,80.3,87.3,79.4,87.3z
		"/>
	<path class="st2" d="M84.6,83.7v-0.7h-1.2v5.2h1.2v-2.9c0-0.9,0.4-1.3,1.1-1.3c0.2,0,0.5,0.1,0.7,0.1l0.3-1.1
		C86.5,83,86.1,83,85.9,83C85.2,83,84.8,83.3,84.6,83.7z"/>
	<path class="st2" d="M91.2,83.7c-0.4-0.5-0.9-0.7-1.7-0.7C88,83,87,84.2,87,85.7c0,1.6,1.2,2.7,2.6,2.7c0.7,0,1.3-0.2,1.7-0.7v0.7
		h1.2v-2.7V81h-1.2V83.7z M89.8,87.3c-1,0-1.6-0.7-1.6-1.7s0.6-1.7,1.6-1.7c0.9,0,1.6,0.7,1.6,1.7C91.3,86.6,90.7,87.3,89.8,87.3z"
		/>
	<path class="st2" d="M64.2,83c-1.5,0-2.6,1.1-2.6,2.7c0,1.7,1.1,2.7,2.6,2.7c0.7,0,1.5-0.2,2.1-0.7L65.8,87c-0.4,0.3-1,0.6-1.5,0.6
		c-0.7,0-1.4-0.3-1.6-1.2h3.8c0-0.2,0-0.2,0-0.4C66.7,84.1,65.7,83,64.2,83z M62.8,85.1c0.2-0.7,0.6-1.2,1.4-1.2
		c0.7,0,1.2,0.4,1.3,1.2H62.8z"/>
	<path class="st2" d="M54.3,85.1l-0.6-0.1c-0.5-0.1-0.8-0.2-0.8-0.5c0-0.4,0.4-0.6,1-0.6c0.7,0,1.3,0.2,1.7,0.4l0.3-0.9
		c-0.6-0.4-1.3-0.6-2.1-0.6c-1.3,0-2.1,0.7-2.1,1.7c0,0.9,0.7,1.3,1.8,1.5l0.6,0.1c0.6,0.1,0.9,0.2,0.9,0.6c0,0.4-0.4,0.7-1.2,0.7
		c-0.7,0-1.3-0.2-1.7-0.6l-0.6,0.9c0.6,0.4,1.4,0.7,2.2,0.7c1.5,0,2.4-0.7,2.4-1.7C56.1,85.8,55.4,85.3,54.3,85.1z"/>
	<path class="st2" d="M49.2,83.7c-0.4-0.5-0.9-0.7-1.7-0.7c-1.5,0-2.6,1.2-2.6,2.7c0,1.6,1.2,2.7,2.6,2.7c0.7,0,1.3-0.2,1.7-0.7v0.7
		h1.2v-2.7v-2.6h-1.2V83.7z M47.7,87.3c-1,0-1.6-0.7-1.6-1.7s0.6-1.7,1.6-1.7c0.9,0,1.6,0.7,1.6,1.7C49.3,86.6,48.6,87.3,47.7,87.3z
		"/>
	<path class="st2" d="M59.7,87.2c-0.6,0-0.7-0.3-0.7-0.8v-2.3h1.8v-1H59v-1.6h-1.2v1.6h-1v1h1v2.4c0,1.2,0.5,1.9,1.8,1.9
		c0.5,0,1-0.2,1.4-0.4l-0.3-1C60.4,87.2,60,87.2,59.7,87.2z"/>
	<path class="st2" d="M41.9,82.9c-0.7,0-1.3,0.2-1.8,0.9c-0.4-0.6-0.9-0.9-1.7-0.9c-0.6,0-1.1,0.2-1.5,0.7V83h-1.2v5.2h1.2v-2.8
		c0-0.9,0.5-1.3,1.2-1.3c0.7,0,1.2,0.5,1.2,1.3v2.8h1.2v-2.8c0-0.9,0.6-1.3,1.2-1.3c0.7,0,1.2,0.5,1.2,1.3v2.8H44V85
		C44,83.7,43.3,82.9,41.9,82.9z"/>
	<path class="st3" d="M56.6,59c0,6.2,2.9,11.6,7.3,15.2h0.2c4.5-3.6,7.3-9,7.3-15.2c0-6.2-2.9-11.7-7.4-15.3h-0.1
		C59.5,47.3,56.6,52.8,56.6,59z"/>
	<path class="st4" d="M56.6,59c0-6.2,2.9-11.7,7.4-15.3c-3.3-2.6-7.4-4.1-12-4.1c-10.7,0-19.4,8.7-19.4,19.4
		c0,10.7,8.8,19.4,19.5,19.4c4.5,0,8.7-1.6,12-4.1c0,0-0.1-0.1-0.1-0.1C59.4,70.7,56.6,65.2,56.6,59z"/>
	<path class="st5" d="M76,39.6c-4.5,0-8.7,1.6-12,4.1c4.5,3.6,7.4,9.1,7.4,15.3c0,6.2-2.8,11.6-7.3,15.2c0,0-0.1,0.1-0.1,0.1
		c3.3,2.6,7.4,4.1,12,4.1c10.7,0,19.4-8.7,19.4-19.4C95.4,48.4,86.7,39.6,76,39.6z"/>
</g>
</svg>
