<?xml version="1.0" encoding="utf-8"?>
<!-- Generator: Adobe Illustrator 24.0.1, SVG Export Plug-In . SVG Version: 6.00 Build 0)  -->
<svg version="1.1" id="Capa_1" xmlns="http://www.w3.org/2000/svg" xmlns:xlink="http://www.w3.org/1999/xlink" x="0px" y="0px"
	 viewBox="0 0 128 128" style="enable-background:new 0 0 128 128;" xml:space="preserve">
<style type="text/css">
	.st0{fill:#FFFFFF;}
	.st1{fill:#A71618;}
	.st2{fill:#B76118;}
	.st3{fill:#CF9C1D;}
</style>
<g>
	<g>
		<path class="st0" d="M22,103.5c-0.4-0.4-0.8-0.7-1.3-0.9c-0.5-0.2-1.1-0.3-1.7-0.3c-0.3,0-0.7,0.1-1,0.1c-0.4,0.1-0.7,0.2-1,0.3
			c-0.3,0.2-0.7,0.4-0.9,0.6c-0.3,0.3-0.6,0.6-0.8,0.9c-0.4-0.6-0.8-1.1-1.4-1.4c-0.6-0.4-1.3-0.5-2.1-0.5c-0.3,0-0.5,0-0.8,0.1
			c-0.3,0.1-0.6,0.2-0.8,0.3c-0.3,0.1-0.6,0.3-0.8,0.5s-0.5,0.5-0.7,0.8v-1.3H6.5V113h2.2v-5.8c0-0.5,0.1-0.9,0.2-1.2
			c0.2-0.4,0.4-0.7,0.6-0.9c0.3-0.3,0.5-0.4,0.8-0.5s0.7-0.2,1-0.2c0.8,0,1.3,0.3,1.7,0.7c0.4,0.5,0.6,1.2,0.6,2v5.8h2.2v-5.8
			c0-0.5,0.1-0.9,0.2-1.2c0.2-0.4,0.4-0.7,0.6-0.9c0.3-0.3,0.5-0.4,0.8-0.5s0.7-0.2,1-0.2c0.8,0,1.3,0.3,1.7,0.7
			c0.4,0.5,0.6,1.2,0.6,2v5.8H23v-6.6c0-0.6-0.1-1.2-0.3-1.7C22.6,104.3,22.3,103.8,22,103.5z"/>
		<path class="st0" d="M33.7,103.8c-0.4-0.5-0.8-0.9-1.4-1.1c-0.6-0.3-1.2-0.4-1.9-0.4s-1.4,0.2-2.1,0.4c-0.7,0.3-1.2,0.7-1.7,1.2
			c-0.5,0.5-0.9,1.1-1.1,1.7c-0.3,0.7-0.4,1.4-0.4,2.2c0,0.8,0.2,1.5,0.4,2.2c0.3,0.7,0.7,1.3,1.1,1.7c0.5,0.5,1,0.9,1.7,1.2
			c0.7,0.3,1.3,0.4,2.1,0.4s1.4-0.2,1.9-0.4c0.6-0.3,1-0.7,1.4-1.1v1.3H36v-10.5h-2.3V103.8z M33.6,109.2c-0.2,0.4-0.4,0.8-0.7,1.1
			c-0.3,0.3-0.6,0.6-1,0.7c-0.4,0.2-0.8,0.3-1.3,0.3c-0.5,0-1-0.1-1.3-0.3c-0.4-0.2-0.7-0.4-1-0.7c-0.3-0.3-0.5-0.7-0.6-1.1
			c-0.2-0.4-0.2-0.9-0.2-1.3c0-0.5,0.1-0.9,0.2-1.3c0.2-0.4,0.4-0.8,0.6-1.1c0.3-0.3,0.6-0.6,1-0.7c0.4-0.2,0.8-0.3,1.3-0.3
			c0.5,0,0.9,0.1,1.3,0.3c0.4,0.2,0.7,0.4,1,0.7c0.3,0.3,0.5,0.7,0.7,1.1c0.2,0.4,0.3,0.9,0.3,1.3S33.7,108.7,33.6,109.2z"/>
		<path class="st0" d="M46.4,107.8c-0.7-0.5-1.5-0.8-2.7-1l-1.1-0.2c-0.3-0.1-0.5-0.1-0.7-0.1c-0.2-0.1-0.4-0.1-0.6-0.2
			c-0.2-0.1-0.3-0.2-0.4-0.3c-0.1-0.1-0.2-0.3-0.2-0.5c0-0.4,0.2-0.7,0.5-0.9c0.4-0.3,0.8-0.4,1.5-0.4c0.3,0,0.7,0.1,1,0.1
			c0.3,0.1,0.6,0.2,0.9,0.2c0.3,0.1,0.6,0.2,0.8,0.3c0.3,0.1,0.4,0.2,0.6,0.3l1-1.8c-0.6-0.4-1.2-0.6-1.9-0.8
			c-0.7-0.2-1.5-0.3-2.3-0.3c-0.7,0-1.3,0.1-1.8,0.3c-0.6,0.2-1,0.4-1.4,0.7c-0.4,0.3-0.7,0.7-0.9,1.1c-0.2,0.4-0.3,0.9-0.3,1.4
			c0,0.9,0.3,1.5,0.9,2c0.6,0.5,1.5,0.9,2.6,1l1.1,0.2c0.6,0.1,1.1,0.3,1.4,0.4c0.3,0.2,0.5,0.5,0.5,0.8c0,0.4-0.2,0.7-0.6,0.9
			c-0.4,0.3-1,0.4-1.8,0.4c-0.4,0-0.8-0.1-1.2-0.1c-0.4-0.1-0.7-0.2-0.9-0.3c-0.3-0.1-0.6-0.2-0.8-0.4c-0.2-0.2-0.4-0.3-0.6-0.4
			l-1.1,1.7c0.4,0.3,0.8,0.5,1.2,0.7c0.4,0.2,0.8,0.3,1.2,0.4c0.4,0.1,0.8,0.2,1.1,0.2c0.4,0.1,0.7,0.1,1,0.1c0.8,0,1.4-0.1,2-0.3
			s1.1-0.4,1.5-0.7c0.4-0.3,0.7-0.7,0.9-1.1c0.2-0.4,0.3-0.9,0.3-1.4C47.4,109,47.1,108.3,46.4,107.8z"/>
		<path class="st0" d="M67.8,103.8c-0.5-0.5-1-0.9-1.6-1.1c-0.6-0.3-1.3-0.4-2-0.4c-0.8,0-1.5,0.2-2.1,0.4c-0.7,0.3-1.2,0.7-1.7,1.1
			c-0.5,0.5-0.8,1.1-1.1,1.7c-0.3,0.7-0.4,1.4-0.4,2.2c0,0.8,0.2,1.6,0.4,2.3c0.3,0.7,0.6,1.3,1.1,1.7c0.5,0.5,1.1,0.9,1.7,1.1
			c0.7,0.3,1.4,0.4,2.2,0.4c0.8,0,1.6-0.1,2.3-0.3c0.7-0.2,1.4-0.6,2-1.2l-1.1-1.6c-0.5,0.4-0.9,0.6-1.5,0.8
			c-0.5,0.2-1.1,0.3-1.6,0.3c-0.4,0-0.7-0.1-1.1-0.2c-0.4-0.1-0.7-0.3-0.9-0.5c-0.3-0.2-0.5-0.5-0.7-0.8c-0.2-0.4-0.4-0.8-0.4-1.2
			h7.7c0-0.2,0.1-0.3,0.1-0.4c0-0.2,0-0.3,0-0.5c0-0.8-0.1-1.6-0.4-2.2C68.6,104.9,68.2,104.3,67.8,103.8z M61.5,106.9
			c0.1-0.4,0.2-0.7,0.3-1.1c0.2-0.3,0.4-0.6,0.6-0.8c0.3-0.3,0.5-0.4,0.8-0.5c0.3-0.1,0.7-0.2,1.1-0.2c0.7,0,1.3,0.2,1.8,0.7
			c0.5,0.5,0.8,1.1,0.9,1.9H61.5z"/>
		<path class="st0" d="M98.2,103.8c-0.4-0.5-0.8-0.9-1.4-1.1c-0.6-0.3-1.2-0.4-1.9-0.4s-1.4,0.2-2.1,0.4c-0.7,0.3-1.2,0.7-1.7,1.2
			c-0.5,0.5-0.9,1.1-1.1,1.7c-0.3,0.7-0.4,1.4-0.4,2.2c0,0.8,0.2,1.5,0.4,2.2c0.3,0.7,0.7,1.3,1.1,1.7c0.5,0.5,1,0.9,1.7,1.2
			c0.7,0.3,1.3,0.4,2.1,0.4s1.4-0.2,1.9-0.4c0.6-0.3,1-0.7,1.4-1.1v1.3h2.3v-10.5h-2.3V103.8z M98.1,109.2c-0.2,0.4-0.4,0.8-0.7,1.1
			c-0.3,0.3-0.6,0.6-1,0.7c-0.4,0.2-0.8,0.3-1.3,0.3c-0.5,0-1-0.1-1.3-0.3c-0.4-0.2-0.7-0.4-1-0.7c-0.3-0.3-0.5-0.7-0.6-1.1
			c-0.2-0.4-0.2-0.9-0.2-1.3c0-0.5,0.1-0.9,0.2-1.3c0.2-0.4,0.4-0.8,0.6-1.1c0.3-0.3,0.6-0.6,1-0.7c0.4-0.2,0.8-0.3,1.3-0.3
			c0.5,0,0.9,0.1,1.3,0.3c0.4,0.2,0.7,0.4,1,0.7c0.3,0.3,0.5,0.7,0.7,1.1c0.2,0.4,0.3,0.9,0.3,1.3S98.3,108.7,98.1,109.2z"/>
		<path class="st0" d="M56.3,111c-0.4,0.2-0.7,0.2-1.1,0.2c-0.3,0-0.5-0.1-0.7-0.1c-0.2-0.1-0.4-0.2-0.5-0.4
			c-0.2-0.2-0.3-0.4-0.4-0.6s-0.2-0.6-0.2-0.9v-4.6h3.6v-2.1h-3.6v-3.2h-2.3v3.2h-2.1v2.1h2.1v4.6c0,1.4,0.4,2.4,1,3.1s1.6,1,2.8,1
			c0.7,0,1.3-0.1,1.8-0.3c0.4-0.2,0.7-0.3,1-0.5l-0.8-1.9C56.7,110.8,56.5,110.9,56.3,111z"/>
		<path class="st0" d="M76.9,102.3c-0.7,0-1.2,0.1-1.7,0.4c-0.5,0.3-1,0.8-1.3,1.3v-1.4h-2.1v10.5h2.1v-5.8c0-0.5,0.1-0.9,0.2-1.2
			c0.1-0.4,0.3-0.7,0.5-0.9c0.2-0.3,0.5-0.4,0.8-0.6c0.3-0.1,0.7-0.2,1-0.2c0.3,0,0.6,0.1,0.9,0.1c0.2,0.1,0.3,0.1,0.5,0.1l0.7-2.2
			c-0.2-0.1-0.4-0.1-0.6-0.2C77.5,102.3,77.2,102.3,76.9,102.3z"/>
		<path class="st0" d="M108.6,102.3c-0.7,0-1.2,0.1-1.7,0.4c-0.5,0.3-1,0.8-1.3,1.3v-1.4h-2.1v10.5h2.1v-5.8c0-0.5,0.1-0.9,0.2-1.2
			c0.1-0.4,0.3-0.7,0.5-0.9c0.2-0.3,0.5-0.4,0.8-0.6c0.3-0.1,0.7-0.2,1-0.2c0.3,0,0.6,0.1,0.9,0.1c0.2,0.1,0.3,0.1,0.5,0.1l0.7-2.2
			c-0.2-0.1-0.4-0.1-0.6-0.2C109.3,102.3,108.9,102.3,108.6,102.3z"/>
		<path class="st0" d="M119.2,98.3v5.5c-0.4-0.5-0.8-0.9-1.4-1.1c-0.6-0.3-1.2-0.4-1.9-0.4s-1.4,0.2-2.1,0.4
			c-0.7,0.3-1.2,0.7-1.7,1.2c-0.5,0.5-0.9,1.1-1.1,1.7c-0.3,0.7-0.4,1.4-0.4,2.2c0,0.8,0.2,1.5,0.4,2.2c0.3,0.7,0.7,1.3,1.1,1.7
			c0.5,0.5,1,0.9,1.7,1.2c0.7,0.3,1.3,0.4,2.1,0.4s1.4-0.2,1.9-0.4c0.6-0.3,1-0.7,1.4-1.1v1.3h2.3V98.4L119.2,98.3L119.2,98.3z
			 M119.2,109.2c-0.2,0.4-0.4,0.8-0.7,1.1c-0.3,0.3-0.6,0.6-1,0.7c-0.4,0.2-0.8,0.3-1.3,0.3c-0.5,0-1-0.1-1.3-0.3
			c-0.4-0.2-0.7-0.4-1-0.7c-0.3-0.3-0.5-0.7-0.6-1.1c-0.2-0.4-0.2-0.9-0.2-1.3c0-0.5,0.1-0.9,0.2-1.3c0.2-0.4,0.4-0.8,0.6-1.1
			c0.3-0.3,0.6-0.6,1-0.7c0.4-0.2,0.8-0.3,1.3-0.3c0.5,0,0.9,0.1,1.3,0.3c0.4,0.2,0.7,0.4,1,0.7c0.3,0.3,0.5,0.7,0.7,1.1
			c0.2,0.4,0.3,0.9,0.3,1.3S119.3,108.7,119.2,109.2z"/>
		<path class="st0" d="M82.3,105.4c0.3-0.3,0.7-0.5,1.1-0.7c0.4-0.2,0.8-0.3,1.3-0.3l0,0c0.5,0,1,0.1,1.4,0.3s0.8,0.4,1.1,0.7
			l1.1-1.8c-0.4-0.4-0.9-0.6-1.4-0.8c-0.7-0.3-1.4-0.4-2.2-0.4s-1.6,0.2-2.2,0.4c-0.7,0.3-1.3,0.7-1.8,1.2s-0.9,1.1-1.2,1.7
			c-0.3,0.7-0.4,1.4-0.4,2.2c0,0.8,0.2,1.5,0.4,2.2c0.3,0.7,0.7,1.3,1.2,1.7c0.5,0.5,1.1,0.9,1.8,1.2c0.7,0.3,1.4,0.4,2.2,0.4
			c0.8,0,1.6-0.2,2.2-0.4c0.5-0.2,1-0.5,1.4-0.8l-1.1-1.8c-0.3,0.3-0.7,0.5-1.1,0.7c-0.5,0.2-0.9,0.3-1.4,0.3l0,0
			c-0.5,0-0.9-0.1-1.3-0.3c-0.4-0.2-0.8-0.4-1.1-0.7c-0.3-0.3-0.5-0.7-0.7-1.1c-0.2-0.4-0.3-0.9-0.3-1.4s0.1-1,0.3-1.4
			C81.8,106.1,82,105.7,82.3,105.4z"/>
	</g>
	<g>
		<path class="st0" d="M126.4,111.5c0.2,0,0.3,0.1,0.4,0.1c0.2,0.1,0.3,0.2,0.4,0.3c0.1,0.1,0.2,0.2,0.3,0.4
			c0.1,0.2,0.1,0.3,0.1,0.4c0,0.2-0.1,0.3-0.1,0.4c-0.1,0.2-0.2,0.3-0.3,0.4c-0.1,0.1-0.2,0.2-0.4,0.3c-0.2,0.1-0.3,0.1-0.4,0.1
			s-0.3-0.1-0.5-0.1c-0.2-0.1-0.3-0.2-0.4-0.3c-0.1-0.1-0.2-0.2-0.3-0.4c-0.1-0.2-0.1-0.3-0.1-0.4c0-0.2,0.1-0.3,0.1-0.4
			c0.1-0.2,0.2-0.3,0.3-0.4c0.1-0.1,0.2-0.2,0.4-0.3C126.1,111.5,126.2,111.5,126.4,111.5z M126.4,113.4c0.1,0,0.2,0,0.3-0.1
			c0.1-0.1,0.2-0.1,0.3-0.2c0.1-0.1,0.1-0.2,0.2-0.3c0.1-0.1,0.1-0.2,0.1-0.3s0-0.2-0.1-0.3s-0.1-0.2-0.2-0.3
			c-0.1-0.1-0.2-0.1-0.3-0.2c-0.1-0.1-0.2-0.1-0.3-0.1c-0.1,0-0.2,0-0.3,0.1s-0.2,0.1-0.3,0.2c-0.1,0.1-0.1,0.2-0.2,0.3
			c-0.1,0.1-0.1,0.2-0.1,0.3c0,0.1,0,0.2,0.1,0.3c0.1,0.1,0.1,0.2,0.2,0.3c0.1,0.1,0.2,0.1,0.3,0.2
			C126.1,113.4,126.2,113.4,126.4,113.4z M126.4,112.1c0.2,0,0.3,0.1,0.3,0.1c0.1,0.1,0.1,0.2,0.1,0.3c0,0.1,0,0.2-0.1,0.2
			c-0.1,0.1-0.1,0.1-0.2,0.1l0.3,0.4h-0.3l-0.3-0.4h-0.1v0.4H126v-1L126.4,112.1L126.4,112.1z M126.2,112.3v0.2h0.2
			c0.1,0,0.1,0,0.1,0l0.1-0.1c0-0.1,0-0.1-0.1-0.1c0,0-0.1,0-0.1,0L126.2,112.3L126.2,112.3z"/>
	</g>
	<g>
		<path class="st1" d="M49,53.7c0-12.5,5.9-23.7,15-30.9c-6.7-5.3-15.2-8.5-24.5-8.5C17.7,14.2,0,31.9,0,53.7s17.7,39.5,39.5,39.5
			c9.3,0,17.8-3.2,24.5-8.5C54.8,77.4,49,66.2,49,53.7z"/>
		<path class="st2" d="M49,53.7c0,12.5,5.9,23.7,15,30.9c9.1-7.2,15-18.4,15-30.9s-5.9-23.7-15-30.9C54.8,30,49,41.1,49,53.7z"/>
		<path class="st3" d="M125.2,75v-1.2h-0.5v-0.3h1.3v0.3h-0.5V75H125.2z M127.6,75v-1l-0.4,0.9h-0.4l-0.4-0.9v1h-0.3v-1.5h0.5l0.4,1
			l0.4-1h0.5V75H127.6z"/>
		<path class="st3" d="M88.4,14.2c-9.3,0-17.8,3.2-24.5,8.5c9.1,7.2,15,18.4,15,30.9s-5.9,23.7-15,30.9c6.7,5.3,15.2,8.5,24.5,8.5
			c21.8,0,39.5-17.7,39.5-39.5S110.2,14.2,88.4,14.2z"/>
	</g>
</g>
</svg>
