<?xml version="1.0" encoding="utf-8"?>
<!-- Generator: Adobe Illustrator 24.0.1, SVG Export Plug-In . SVG Version: 6.00 Build 0)  -->
<svg version="1.1" id="Capa_1" xmlns="http://www.w3.org/2000/svg" xmlns:xlink="http://www.w3.org/1999/xlink" x="0px" y="0px"
	 viewBox="0 0 128 128" style="enable-background:new 0 0 128 128;" xml:space="preserve">
<style type="text/css">
	.st0{fill:#FFFFFF;}
	.st1{fill:#D4D4D4;}
	.st2{fill:#DAA33B;}
	.st3{fill:#CB2228;}
</style>
<g>
	<path class="st0" d="M117.3,30.9H10.7c-5,0-9.1,4.1-9.1,9.1V88c0,5,4.1,9.1,9.1,9.1h106.6c5,0,9.1-4.1,9.1-9.1V40
		C126.4,35,122.3,30.9,117.3,30.9z M109.8,78.5L109.8,78.5l-0.1,2.1v1.2c0,1.6-1.2,2.8-2.8,2.8h-84c-1.6,0-2.8-1.2-2.8-2.8v-1.2
		v-2.1V49.5v-2.1v-1.2c0-1.6,1.2-2.8,2.8-2.8h84c1.6,0,2.8,1.2,2.8,2.8v1.2v2.1h0.1V78.5z"/>
	<path class="st1" d="M117.3,29.3H10.7C4.8,29.3,0,34.1,0,40V88c0,5.9,4.8,10.7,10.7,10.7h106.6c5.9,0,10.7-4.8,10.7-10.7V40
		C128,34.1,123.2,29.3,117.3,29.3z M126.4,88c0,5-4.1,9.1-9.1,9.1H10.7c-5,0-9.1-4.1-9.1-9.1V40c0-5,4.1-9.1,9.1-9.1h106.6
		c5,0,9.1,4.1,9.1,9.1V88z"/>
	<path class="st2" d="M20.1,81.8c0,1.6,1.2,2.8,2.8,2.8h84c1.6,0,2.8-1.2,2.8-2.8v-1.2H20.1V81.8z"/>
	<path class="st2" d="M109.8,46.2c0-1.6-1.2-2.8-2.8-2.8h-84c-1.6,0-2.8,1.2-2.8,2.8v1.2h89.6V46.2z"/>
	<path class="st0" d="M77.2,56.3l-4,4.6l-4.5-5.5L65.8,59l4.5,5.4l-6.9,8c-1.7,2.6,1.5,5.1,3.5,2.8l6.4-7.4l6.5,7.8
		c2,2.3,5.1-0.2,3.5-2.8l-7-8.4l4.5-5.1c4.6-5.5,7.9-9.9,14.8-9.7h14.3v-2.1H20.1v2.1h63.5C81.1,51.1,79.1,54.1,77.2,56.3z"/>
	<path class="st0" d="M53.2,71.8l3.8-4.7l4.6,5.2l2.9-3.5l-4.6-5.3l6.7-8.2c1.7-2.6-1.6-5.1-3.6-2.7L56.9,60l-6.7-7.6
		c-2.1-2.3-5.2,0.3-3.5,2.9l7.2,8.3l-4.3,5.2c-4.6,5.5-7.8,9.7-14.6,9.7H20.1v2.1h89.6v-2.1H46.9C49.4,77,51.3,74.1,53.2,71.8z"/>
	<path class="st0" d="M34.8,51.7C28.3,51.7,23,57,23,63.4s5.3,11.7,11.7,11.7s11.7-5.3,11.7-11.7S41.2,51.7,34.8,51.7z M34.8,70.9
		c-4,0-7.4-3.3-7.4-7.4s3.3-7.4,7.4-7.4s7.4,3.3,7.4,7.4S38.8,70.9,34.8,70.9z"/>
	<path class="st0" d="M96.1,51.8c-6.4,0-11.7,5.3-11.7,11.7s5.3,11.7,11.7,11.7c6.5,0,11.7-5.3,11.7-11.7S102.5,51.8,96.1,51.8z
		 M96.1,70.9c-4,0-7.4-3.3-7.4-7.4s3.3-7.4,7.4-7.4s7.4,3.3,7.4,7.4S100.1,70.9,96.1,70.9z"/>
	<circle class="st3" cx="96.1" cy="63.4" r="7.4"/>
	<circle class="st3" cx="34.8" cy="63.4" r="7.4"/>
	<path class="st3" d="M95.5,49.5c-6.9-0.2-10.2,4.3-14.8,9.7l-4.5,5.1l7,8.4c1.7,2.6-1.5,5.1-3.5,2.8l-6.5-7.8l-6.4,7.4
		c-2,2.3-5.2-0.2-3.5-2.8l6.9-8L65.8,59l2.9-3.6l4.5,5.5l4-4.6c1.9-2.2,3.9-5.2,6.4-6.8H20.1v28.9H35c6.9,0,10-4.1,14.6-9.7l4.3-5.2
		l-7.2-8.3c-1.7-2.6,1.4-5.2,3.5-2.9l6.7,7.6l6.1-7.4c2-2.4,5.2,0.2,3.6,2.7l-6.7,8.2l4.6,5.3l-2.9,3.5L57,67.1l-3.8,4.7
		c-1.9,2.3-3.8,5.2-6.3,6.8h62.9h0.1V49.5h-0.1H95.5z M46.5,63.4c0,6.4-5.3,11.7-11.7,11.7S23,69.9,23,63.4s5.3-11.7,11.7-11.7
		S46.5,57,46.5,63.4z M96.1,75.2c-6.4,0-11.7-5.3-11.7-11.7s5.3-11.7,11.7-11.7s11.7,5.3,11.7,11.7S102.6,75.2,96.1,75.2z"/>
</g>
</svg>
