<?xml version="1.0" encoding="utf-8"?>
<!-- Generator: Adobe Illustrator 24.0.1, SVG Export Plug-In . SVG Version: 6.00 Build 0)  -->
<svg version="1.1" id="Capa_1" xmlns="http://www.w3.org/2000/svg" xmlns:xlink="http://www.w3.org/1999/xlink" x="0px" y="0px"
	 viewBox="0 0 128 128" style="enable-background:new 0 0 128 128;" xml:space="preserve">
<style type="text/css">
	.st0{fill:#FFFFFF;}
	.st1{fill:#D4D4D4;}
	.st2{fill:#3D6CCE;}
</style>
<g>
	<path class="st0" d="M81.7,52.3c0,0.9,0.1,1.4,0.3,1.6c0.1,0,0.3,0.1,0.6,0.1l1.4-3.3l-1.1,0c-0.8,0-0.8,0.1-0.9,0.2
		C81.9,50.8,81.7,51.3,81.7,52.3z"/>
	<rect x="71.2" y="45.5" class="st0" width="3.3" height="13.6"/>
	<path class="st0" d="M63.1,68.9H52.7l-4.1,4.5l-4-4.5H31.5v13.6h12.9l4.2-4.5l4,4.5h6.3V78h4.1c2.9,0,5.7-0.8,5.7-4.6
		C68.6,69.6,65.7,68.9,63.1,68.9z M42.7,79.7h-8V77h7.1v-2.8h-7.1v-2.5l8.2,0l3.6,4L42.7,79.7z M55.6,81.3l-5-5.6l5-5.4V81.3z
		 M63.1,75.2h-4.2v-3.5h4.3c1.2,0,2,0.5,2,1.7C65.1,74.6,64.3,75.2,63.1,75.2z"/>
	<path class="st0" d="M82.6,59.1h3.8l1.2-3h6.8l1.3,3h6.6V48.9l6.2,10.2h4.6V45.5h-3.3v9.5l-5.7-9.5h-5v12.9l-5.5-12.9h-4.9
		l-4.6,10.7h-1.5c-0.9,0-1.8-0.2-2.3-0.7c-0.6-0.7-0.9-1.7-0.9-3.2c0-1.4,0.4-2.5,0.9-3.1c0.6-0.6,1.3-0.8,2.5-0.8H86v-2.9h-3.1
		c-2.2,0-3.9,0.5-4.9,1.6c-1.4,1.5-1.8,3.3-1.8,5.3c0,2.5,0.6,4,1.8,5.2C79,58.7,81,59.1,82.6,59.1z M91,47.8l2.3,5.4h-4.5L91,47.8z
		"/>
	<path class="st0" d="M32.6,59.1l4.7-10.7l0,10.7h3.3V45.5h-5.4l-3.9,9.2L27,45.5h-5.3v12.9l-5.5-12.9h-4.8L5.5,59.1h3.5l1.3-3h6.8
		l1.3,3H25V48.4l4.7,10.7H32.6z M11.5,53.2l2.2-5.4l2.2,5.4H11.5z"/>
	<path class="st0" d="M59.5,54.1H63c1.2,0,1.9,0.1,2.4,0.6c0.6,0.7,0.5,1.8,0.5,2.7l0,1.7h3.3v-2.7c0-1.2-0.1-1.8-0.5-2.5
		c-0.3-0.4-0.9-0.9-1.6-1.1c0.8-0.3,2.3-1.5,2.3-3.6c0-1.5-0.6-2.4-1.7-3c-1-0.6-2.3-0.7-3.9-0.7h-7.5l0,13.6h3.3V54.1z M59.5,48.3
		h4c0.6,0,1.2,0,1.5,0.2c0.4,0.2,0.7,0.6,0.7,1.2c0,0.6-0.3,1.1-0.7,1.3c-0.5,0.3-1,0.3-1.6,0.3h-4V48.3z"/>
	<path class="st0" d="M81.6,69.6c-1.1-0.6-2.3-0.6-3.9-0.6h-7.5v13.6h3.3v-5h3.5c1.2,0,1.9,0.1,2.4,0.6c0.6,0.6,0.5,1.9,0.5,2.7v1.7
		h3.3v-2.7c0-1.2-0.1-1.8-0.5-2.5c-0.3-0.4-0.9-0.9-1.6-1.2c0.9-0.3,2.3-1.5,2.3-3.6C83.3,71,82.6,70.2,81.6,69.6z M79,74.5
		c-0.4,0.3-1,0.3-1.6,0.3h-4v-3.1h4c0.6,0,1.2,0,1.6,0.2c0.4,0.2,0.7,0.6,0.7,1.2C79.7,73.8,79.4,74.3,79,74.5z"/>
	<path class="st0" d="M104.7,74.3l-1.8,0c-0.6,0-0.9,0-1.3-0.2c-0.4-0.2-0.7-0.5-0.7-1c0-0.4,0.1-0.8,0.5-1c0.3-0.2,0.7-0.2,1.3-0.2
		h6v-2.9h-6.5c-3.4,0-4.7,2.1-4.7,4.1c0,4.3,3.8,4.1,6.9,4.2c0.6,0,0.9,0.1,1.2,0.3c0.2,0.2,0.4,0.5,0.4,0.9c0,0.4-0.2,0.7-0.4,0.9
		c-0.3,0.3-0.7,0.3-1.3,0.3h-6.3v2.9h6.3c3.3,0,5.1-1.4,5.1-4.3c0-1.4-0.3-2.2-1-2.9C107.6,74.6,106.4,74.3,104.7,74.3z"/>
	<path class="st0" d="M118,74.3l-1.8,0c-0.6,0-0.9,0-1.3-0.2c-0.4-0.2-0.7-0.5-0.7-1c0-0.4,0.1-0.8,0.5-1c0.3-0.2,0.7-0.2,1.3-0.2h6
		v-2.9h-6.5c-3.4,0-4.7,2.1-4.7,4.1c0,4.3,3.8,4.1,6.9,4.2c0.6,0,0.9,0.1,1.2,0.3c0.2,0.2,0.4,0.5,0.4,0.9c0,0.4-0.2,0.7-0.4,0.9
		c-0.3,0.3-0.7,0.3-1.3,0.3h-6.3v2.9h6.3c3.3,0,5.1-1.4,5.1-4.3c0-1.4-0.3-2.2-1-2.9C121,74.6,119.7,74.3,118,74.3z"/>
	<polygon class="st0" points="54,56.3 46.3,56.3 46.3,53.5 53.8,53.5 53.8,50.7 46.3,50.7 46.3,48.3 54,48.3 54,45.5 43.1,45.5 
		43.1,59.1 54,59.1 	"/>
	<polygon class="st0" points="85.1,82.6 95.9,82.6 95.9,79.7 88.3,79.7 88.3,77 95.8,77 95.8,74.2 88.3,74.2 88.3,71.7 95.9,71.7 
		95.9,68.9 85.1,68.9 	"/>
	<path class="st0" d="M117.3,30.9H10.7c-5,0-9.1,4.1-9.1,9.1V88c0,5,4.1,9.1,9.1,9.1h106.6c5,0,9.1-4.1,9.1-9.1V40
		C126.4,35,122.3,30.9,117.3,30.9z M27.7,60l-0.4-1v0c0,1.2-1,2.2-2.2,2.2h-6.6c-0.9,0-1.7-0.6-2.1-1.4l-0.7-1.6h-3.8L11.1,60
		c-0.3,0.8-1.2,1.4-2.1,1.4H5.5c-0.8,0-1.5-0.4-1.9-1c-0.4-0.6-0.5-1.4-0.2-2.1l5.8-13.6c0.4-0.8,1.2-1.4,2.1-1.4h4.8
		c0.9,0,1.7,0.5,2.1,1.4l1.2,2.8v-2c0-1.2,1-2.2,2.2-2.2H27c0.9,0,1.7,0.5,2,1.3l2.1,4.6l1.9-4.6c0.4-0.8,1.2-1.4,2.1-1.4h5.4
		c0.5,0,0.9,0.2,1.2,0.4c0.4-0.2,0.8-0.4,1.2-0.4H54c0.4,0,0.8,0.1,1.1,0.3c0.3-0.2,0.7-0.3,1.1-0.3h7.5c1.9,0,3.5,0.1,5.1,1
		c0.2,0.1,0.3,0.2,0.4,0.3c0.4-0.7,1.1-1.3,2-1.3h3.3c1.1,0,2,0.8,2.2,1.9c1.5-1.3,3.4-1.9,6.1-1.9H86c0.5,0,1,0.2,1.3,0.4
		c0.4-0.3,0.9-0.4,1.3-0.4h4.9c0.9,0,1.7,0.5,2.1,1.4l1.2,2.8v-1.9c0-1.2,1-2.2,2.2-2.2h5c0.8,0,1.5,0.4,1.9,1.1l1.5,2.6v-1.4
		c0-1.2,1-2.2,2.3-2.2h3.3c1.2,0,2.2,1,2.2,2.2v13.6c0,1.2-1,2.2-2.2,2.2h-4.6c-0.8,0-1.5-0.4-1.9-1.1l-2-3.3v2.1
		c0,1.2-1,2.2-2.2,2.2h-6.6c-0.9,0-1.7-0.5-2.1-1.4l-0.7-1.7h-3.8l-0.7,1.6c-0.3,0.9-1.2,1.4-2.1,1.4h-3.8c-1.4,0-4-0.3-5.9-1.8
		c-0.2,1-1.1,1.8-2.2,1.8h-3.4c-0.4,0-0.7-0.1-1-0.3c-0.3,0.2-0.6,0.3-1,0.3h-3.3c-1.2,0-2.2-1-2.3-2.2l0-1.7l0-0.3
		c0-0.2,0-0.5,0-0.7c-0.1,0-0.3,0-0.6,0h-1.2v2.7c0,1.2-1,2.2-2.2,2.2h-3.3c-0.4,0-0.8-0.1-1.1-0.3c-0.3,0.2-0.7,0.3-1.1,0.3H43.1
		c-0.5,0-0.9-0.2-1.2-0.4c-0.4,0.2-0.8,0.4-1.2,0.4h-3.3c-1.2,0-2.2-1-2.2-2.2v-0.1l-0.4,1c-0.4,0.8-1.2,1.3-2.1,1.3l-2.9,0
		C28.8,61.3,28,60.8,27.7,60z M123.3,73.8c1.1,1.1,1.6,2.6,1.6,4.5c0,4.1-2.8,6.6-7.4,6.6h-6.3c-0.9,0-1.7-0.6-2.1-1.4
		c-1.2,0.9-2.9,1.4-4.9,1.4h-6.3c-0.4,0-0.7-0.1-1-0.2c-0.3,0.1-0.6,0.2-1,0.2H85.1c-0.4,0-0.7-0.1-1-0.3c-0.3,0.2-0.6,0.3-1,0.3
		h-3.3c-1.2,0-2.3-1-2.3-2.2v-2c0-0.2,0-0.5,0-0.7c-0.1,0-0.4,0-0.7,0h-1.2v2.7c0,1.2-1,2.2-2.3,2.2h-3.3c-1.2,0-2.3-1-2.3-2.2v-3.5
		c-1.2,0.7-2.8,1.1-5,1.1h-1.8v2.3c0,1.2-1,2.2-2.3,2.2h-6.3c-0.6,0-1.3-0.3-1.7-0.8l-2.4-2.7L46,84.1c-0.4,0.5-1,0.7-1.7,0.7H31.4
		c-1.2,0-2.2-1-2.2-2.3V68.9c0-1.2,1-2.3,2.2-2.3h13.1c0.6,0,1.2,0.3,1.7,0.8l2.4,2.6l2.5-2.7c0.4-0.5,1-0.7,1.7-0.7h10.4
		c2.3,0,3.9,0.5,5,1.2c0.4-0.7,1.1-1.2,2-1.2h7.5c1.7,0,3.4,0.1,5,0.9c0.2,0.1,0.3,0.2,0.4,0.3c0.4-0.7,1.1-1.2,2-1.2h10.9
		c0.8,0,1.5,0.5,1.9,1.2c1.1-0.7,2.5-1.2,4.3-1.2h6.5c1,0,1.8,0.6,2.1,1.5c1.1-0.9,2.7-1.5,4.7-1.5h6.5c1.2,0,2.3,1,2.3,2.3v2.9
		C124.3,72.6,123.8,73.3,123.3,73.8C123.3,73.7,123.3,73.8,123.3,73.8z"/>
	<path class="st1" d="M117.3,29.3H10.7C4.8,29.3,0,34.1,0,40V88c0,5.9,4.8,10.7,10.7,10.7h106.6c5.9,0,10.7-4.8,10.7-10.7V40
		C128,34.1,123.2,29.3,117.3,29.3z M126.4,88c0,5-4.1,9.1-9.1,9.1H10.7c-5,0-9.1-4.1-9.1-9.1V40c0-5,4.1-9.1,9.1-9.1h106.6
		c5,0,9.1,4.1,9.1,9.1V88z"/>
	<path class="st2" d="M32.6,61.4c0.9,0,1.7-0.5,2.1-1.3l0.4-1v0.1c0,1.2,1,2.2,2.2,2.2h3.3c0.5,0,0.9-0.2,1.2-0.4
		c0.4,0.2,0.8,0.4,1.2,0.4h10.9c0.4,0,0.8-0.1,1.1-0.3c0.3,0.2,0.7,0.3,1.1,0.3h3.3c1.2,0,2.2-1,2.2-2.2v-2.7H63c0.3,0,0.5,0,0.6,0
		c0,0.2,0,0.5,0,0.7l0,0.3l0,1.7c0,1.2,1,2.2,2.3,2.2h3.3c0.4,0,0.7-0.1,1-0.3c0.3,0.2,0.6,0.3,1,0.3h3.4c1.1,0,1.9-0.8,2.2-1.8
		c1.9,1.6,4.5,1.8,5.9,1.8h3.8c0.9,0,1.7-0.6,2.1-1.4l0.7-1.6h3.8l0.7,1.7c0.3,0.8,1.2,1.4,2.1,1.4h6.6c1.2,0,2.2-1,2.2-2.2V57
		l2,3.3c0.4,0.7,1.1,1.1,1.9,1.1h4.6c1.2,0,2.2-1,2.2-2.2V45.5c0-1.2-1-2.2-2.2-2.2h-3.3c-1.2,0-2.3,1-2.3,2.2v1.4l-1.5-2.6
		c-0.4-0.7-1.1-1.1-1.9-1.1h-5c-1.2,0-2.2,1-2.2,2.2v1.9l-1.2-2.8c-0.4-0.8-1.2-1.4-2.1-1.4h-4.9c-0.5,0-1,0.2-1.3,0.4
		c-0.4-0.3-0.8-0.4-1.3-0.4h-3.1c-2.7,0-4.7,0.7-6.1,1.9c-0.2-1.1-1.1-1.9-2.2-1.9h-3.3c-0.9,0-1.6,0.5-2,1.3
		c-0.1-0.1-0.2-0.2-0.4-0.3c-1.5-0.9-3.1-1-5.1-1h-7.5c-0.4,0-0.8,0.1-1.1,0.3c-0.3-0.2-0.7-0.3-1.1-0.3H43.1
		c-0.5,0-0.9,0.2-1.2,0.4c-0.4-0.2-0.8-0.4-1.2-0.4h-5.4c-0.9,0-1.7,0.5-2.1,1.4l-1.9,4.6l-2.1-4.6c-0.4-0.8-1.2-1.3-2-1.3h-5.3
		c-1.2,0-2.2,1-2.2,2.2v2l-1.2-2.8c-0.4-0.8-1.2-1.4-2.1-1.4h-4.8c-0.9,0-1.7,0.5-2.1,1.4L3.4,58.2c-0.3,0.7-0.2,1.5,0.2,2.1
		c0.4,0.6,1.1,1,1.9,1h3.5c0.9,0,1.7-0.6,2.1-1.4l0.7-1.7h3.8l0.7,1.6c0.3,0.8,1.2,1.4,2.1,1.4H25c1.2,0,2.2-1,2.2-2.2v0l0.4,1
		c0.4,0.8,1.2,1.3,2.1,1.3L32.6,61.4z M77.9,47c1-1.1,2.7-1.6,4.9-1.6H86v2.9h-3.1c-1.2,0-1.9,0.2-2.5,0.8c-0.6,0.6-0.9,1.7-0.9,3.1
		c0,1.5,0.3,2.5,0.9,3.2c0.5,0.5,1.4,0.7,2.3,0.7h1.5l4.6-10.7h4.9l5.5,12.9V45.5h5l5.7,9.5v-9.5h3.3v13.6h-4.6l-6.2-10.2v10.2h-6.6
		l-1.3-3h-6.8l-1.2,3h-3.8c-1.6,0-3.6-0.3-4.7-1.5c-1.2-1.2-1.8-2.7-1.8-5.2C76.1,50.4,76.5,48.5,77.9,47z M84,50.6l-1.4,3.3
		c-0.3,0-0.5,0-0.6-0.1c-0.1-0.2-0.3-0.7-0.3-1.6c0-0.9,0.2-1.4,0.3-1.5c0.1-0.1,0.2-0.2,0.9-0.2L84,50.6z M71.2,45.5h3.3v13.6h-3.3
		V45.5z M56.2,45.4h7.5c1.7,0,2.9,0,3.9,0.7c1,0.6,1.7,1.5,1.7,3c0,2.2-1.5,3.3-2.3,3.6c0.7,0.3,1.3,0.8,1.6,1.1
		c0.5,0.7,0.5,1.3,0.5,2.5v2.7h-3.3l0-1.7c0-0.8,0.1-2-0.5-2.7c-0.5-0.5-1.2-0.6-2.4-0.6h-3.5v5h-3.3L56.2,45.4z M43.1,45.5H54v2.8
		h-7.6v2.5h7.4v2.8h-7.4v2.7H54v2.8H43.1V45.5z M25,48.4v10.7h-6.6l-1.3-3h-6.8l-1.3,3H5.5l5.8-13.6h4.8l5.5,12.9V45.5H27l4.3,9.2
		l3.9-9.2h5.4v13.6h-3.3l0-10.7l-4.7,10.7h-2.9L25,48.4z"/>
	<polygon class="st2" points="55.6,81.3 55.6,70.4 50.6,75.8 	"/>
	<path class="st2" d="M65,51c0.4-0.2,0.7-0.7,0.7-1.3c0-0.6-0.3-1-0.7-1.2c-0.4-0.2-1-0.2-1.5-0.2h-4v3h4C64.1,51.3,64.6,51.3,65,51
		z"/>
	<polygon class="st2" points="34.7,71.7 34.7,74.2 41.9,74.2 41.9,77 34.7,77 34.7,79.7 42.7,79.7 46.4,75.7 42.9,71.7 	"/>
	<polygon class="st2" points="11.5,53.2 15.9,53.2 13.7,47.8 	"/>
	<polygon class="st2" points="91,47.8 88.8,53.2 93.3,53.2 	"/>
	<path class="st2" d="M79,72c-0.4-0.2-1-0.2-1.6-0.2h-4v3.1h4c0.6,0,1.2,0,1.6-0.3c0.4-0.3,0.7-0.7,0.7-1.3
		C79.7,72.6,79.4,72.2,79,72z"/>
	<path class="st2" d="M124.3,71.8v-2.9c0-1.2-1-2.3-2.3-2.3h-6.5c-2,0-3.6,0.6-4.7,1.5c-0.3-0.9-1.1-1.5-2.1-1.5h-6.5
		c-1.8,0-3.2,0.4-4.3,1.2c-0.4-0.7-1.1-1.2-1.9-1.2H85.1c-0.9,0-1.6,0.5-2,1.2c-0.1-0.1-0.3-0.2-0.4-0.3c-1.6-0.8-3.3-0.9-5-0.9
		h-7.5c-0.9,0-1.6,0.5-2,1.2c-1.1-0.7-2.7-1.2-5-1.2H52.7c-0.6,0-1.2,0.3-1.7,0.7l-2.5,2.7l-2.4-2.6c-0.4-0.5-1-0.8-1.7-0.8H31.4
		c-1.2,0-2.2,1-2.2,2.3v13.6c0,1.2,1,2.3,2.2,2.3h12.9c0.6,0,1.2-0.3,1.7-0.7l2.5-2.7l2.4,2.7c0.4,0.5,1,0.8,1.7,0.8h6.3
		c1.2,0,2.3-1,2.3-2.2v-2.3h1.8c2.2,0,3.8-0.5,5-1.1v3.5c0,1.2,1,2.2,2.3,2.2h3.3c1.2,0,2.3-1,2.3-2.2v-2.7h1.2c0.3,0,0.5,0,0.7,0
		c0,0.2,0,0.5,0,0.7v2c0,1.2,1,2.2,2.3,2.2h3.3c0.4,0,0.7-0.1,1-0.3c0.3,0.1,0.6,0.3,1,0.3H96c0.3,0,0.7-0.1,1-0.2
		c0.3,0.1,0.6,0.2,1,0.2h6.3c2,0,3.7-0.5,4.9-1.4c0.3,0.8,1.1,1.4,2.1,1.4h6.3c4.6,0,7.4-2.4,7.4-6.6c0-1.9-0.5-3.3-1.6-4.5
		c0,0,0,0-0.1-0.1C123.8,73.3,124.3,72.6,124.3,71.8z M62.9,78h-4.1v4.6h-6.3l-4-4.5l-4.2,4.5H31.5V68.9h13.1l4,4.5l4.1-4.5h10.4
		c2.6,0,5.5,0.7,5.5,4.5C68.6,77.2,65.8,78,62.9,78z M81,76.2c0.7,0.3,1.3,0.7,1.6,1.2c0.5,0.7,0.5,1.3,0.5,2.5v2.7h-3.3v-1.7
		c0-0.8,0.1-2-0.5-2.7c-0.5-0.5-1.2-0.6-2.4-0.6h-3.5v5h-3.3V68.9h7.5c1.6,0,2.8,0.1,3.9,0.6c1,0.6,1.7,1.5,1.7,3
		C83.3,74.8,81.8,75.9,81,76.2z M95.9,71.7h-7.6v2.5h7.4V77h-7.4v2.7l7.6,0v2.8H85.1V68.9h10.9V71.7z M104.2,82.5h-6.3v-2.9h6.3
		c0.6,0,1.1-0.1,1.3-0.3c0.2-0.2,0.4-0.5,0.4-0.9c0-0.4-0.2-0.7-0.4-0.9c-0.3-0.2-0.6-0.3-1.2-0.3c-3-0.1-6.9,0.1-6.9-4.2
		c0-2,1.2-4.1,4.7-4.1h6.5v2.9h-6c-0.6,0-1,0-1.3,0.2c-0.4,0.2-0.5,0.6-0.5,1c0,0.5,0.3,0.9,0.7,1c0.3,0.1,0.7,0.2,1.3,0.2l1.8,0
		c1.8,0,3,0.4,3.7,1.1c0.6,0.7,1,1.5,1,2.9C109.4,81.2,107.5,82.6,104.2,82.5z M117.6,82.5h-6.3v-2.9h6.3c0.6,0,1-0.1,1.3-0.3
		c0.2-0.2,0.4-0.5,0.4-0.9c0-0.4-0.2-0.7-0.4-0.9c-0.3-0.2-0.6-0.3-1.2-0.3c-3-0.1-6.9,0.1-6.9-4.2c0-2,1.2-4.1,4.7-4.1h6.5v2.9h-6
		c-0.6,0-1,0-1.3,0.2c-0.4,0.2-0.5,0.6-0.5,1c0,0.5,0.3,0.9,0.7,1c0.4,0.1,0.7,0.2,1.3,0.2l1.8,0c1.8,0,3,0.4,3.7,1.1
		c0.6,0.7,1,1.5,1,2.9C122.7,81.2,120.8,82.6,117.6,82.5z"/>
	<path class="st2" d="M63.1,71.7h-4.3v3.5h4.2c1.3,0,2-0.6,2-1.8C65.1,72.2,64.3,71.7,63.1,71.7z"/>
</g>
</svg>
