<?xml version="1.0" encoding="utf-8"?>
<!-- Generator: Adobe Illustrator 24.0.1, SVG Export Plug-In . SVG Version: 6.00 Build 0)  -->
<svg version="1.1" id="Capa_1" xmlns="http://www.w3.org/2000/svg" xmlns:xlink="http://www.w3.org/1999/xlink" x="0px" y="0px"
	 viewBox="0 0 128 128" style="enable-background:new 0 0 128 128;" xml:space="preserve">
<g>
	<path style="fill:#FFF"  d="M127.7,37.6c-0.3-6.8-1.4-11.5-3-15.5c-1.6-4.3-4.1-8.2-7.4-11.4c-3.2-3.3-7.1-5.8-11.3-7.4c-4.1-1.6-8.7-2.7-15.5-3
		C83.6,0.1,81.4,0,64,0S44.5,0.1,37.6,0.4c-6.8,0.3-11.5,1.4-15.5,3C17.8,5,14,7.5,10.8,10.7C7.5,13.9,5,17.8,3.4,22.1
		c-1.6,4.1-2.7,8.7-3,15.5C0.1,44.5,0,46.6,0,64s0.1,19.6,0.4,26.4c0.3,6.8,1.4,11.5,3,15.5c1.6,4.3,4.2,8.2,7.4,11.4
		c3.2,3.3,7.1,5.8,11.3,7.4c4.1,1.6,8.7,2.7,15.5,3c6.8,0.3,9,0.4,26.4,0.4s19.6-0.1,26.4-0.4c6.8-0.3,11.5-1.4,15.5-3
		c8.6-3.3,15.4-10.1,18.7-18.7c1.6-4.1,2.7-8.7,3-15.5c0.3-6.8,0.4-9,0.4-26.4S128,44.5,127.7,37.6z M116.1,89.9
		c-0.3,6.3-1.3,9.6-2.2,11.9c-2.2,5.6-6.6,10-12.2,12.2c-2.3,0.9-5.7,1.9-11.9,2.2c-6.8,0.3-8.8,0.4-25.9,0.4s-19.1-0.1-25.9-0.4
		c-6.3-0.3-9.6-1.3-11.9-2.2c-2.8-1-5.3-2.7-7.4-4.8c-2.1-2.1-3.8-4.6-4.8-7.4c-0.9-2.3-1.9-5.7-2.2-11.9c-0.3-6.8-0.4-8.8-0.4-25.9
		s0.1-19.1,0.4-25.9c0.3-6.3,1.3-9.6,2.2-11.9c1-2.8,2.7-5.3,4.8-7.4c2.1-2.1,4.6-3.8,7.4-4.8c2.3-0.9,5.7-1.9,11.9-2.2
		c6.8-0.3,8.8-0.4,25.9-0.4c17.1,0,19.1,0.1,25.9,0.4c6.3,0.3,9.6,1.3,11.9,2.2c2.8,1,5.3,2.7,7.4,4.8c2.1,2.1,3.8,4.6,4.8,7.4
		c0.9,2.3,1.9,5.7,2.2,11.9c0.3,6.8,0.4,8.8,0.4,25.9S116.4,83.1,116.1,89.9z"/>
	<path style="fill:#FFF"  d="M64,31.1c-18.2,0-32.9,14.7-32.9,32.9S45.9,96.9,64,96.9c18.2,0,32.9-14.7,32.9-32.9S82.2,31.1,64,31.1z M64,85.3
		c-11.8,0-21.3-9.6-21.3-21.3S52.2,42.7,64,42.7c11.8,0,21.3,9.6,21.3,21.3S75.8,85.3,64,85.3z"/>
	<path style="fill:#FFF"  d="M105.9,29.8c0,4.2-3.4,7.7-7.7,7.7c-4.2,0-7.7-3.4-7.7-7.7c0-4.2,3.4-7.7,7.7-7.7C102.5,22.1,105.9,25.6,105.9,29.8z"/>
</g>
</svg>
