<?xml version="1.0" encoding="utf-8"?>
<!-- Generator: Adobe Illustrator 24.0.1, SVG Export Plug-In . SVG Version: 6.00 Build 0)  -->
<svg version="1.1" id="Capa_1" xmlns="http://www.w3.org/2000/svg" xmlns:xlink="http://www.w3.org/1999/xlink" x="0px" y="0px"
	 viewBox="0 0 128 128" style="enable-background:new 0 0 128 128;" xml:space="preserve">
<style type="text/css">
	.st0{fill:url(#SVGID_1_);}
	.st1{fill:#FFFFFF;}
</style>
<g>
	
		<radialGradient id="SVGID_1_" cx="22.4527" cy="107.5476" r="119.4074" gradientTransform="matrix(1 0 0 -1 0 130)" gradientUnits="userSpaceOnUse">
		<stop  offset="0" style="stop-color:#ABD2F5"/>
		<stop  offset="7.110000e-02" style="stop-color:#A8D0F4"/>
		<stop  offset="0.1575" style="stop-color:#9CCBF2"/>
		<stop  offset="0.2516" style="stop-color:#8BC3EE"/>
		<stop  offset="0.3514" style="stop-color:#77B8E9"/>
		<stop  offset="0.4546" style="stop-color:#62AAE2"/>
		<stop  offset="0.5" style="stop-color:#5AA2DF"/>
		<stop  offset="1" style="stop-color:#4B75BA"/>
	</radialGradient>
	<path class="st0" d="M127.2,0.1H0v127.7h127.2V85.7c0.5-0.7,0.8-1.7,0.8-2.8c0-1.3-0.2-2.1-0.8-2.8"/>
	<path class="st1" d="M11.5,55.4l-2.4-6l-2.4,6 M65.4,53c-0.5,0.3-1.1,0.3-1.8,0.3h-4.3V50h4.4c0.6,0,1.3,0,1.7,0.3
		c0.5,0.2,0.8,0.7,0.8,1.3C66.1,52.3,65.9,52.8,65.4,53z M96.4,55.4l-2.5-6l-2.5,6H96.4z M38.6,61.9h-3.7l0-11.7l-5.2,11.7h-3.1
		l-5.2-11.7v11.7h-7.3l-1.4-3.3H5.3l-1.4,3.3H0l6.4-15h5.3l6.1,14.2V46.9h5.8l4.7,10.2l4.3-10.2h6L38.6,61.9L38.6,61.9z M53.2,61.9
		H41.3v-15h11.9V50h-8.4v2.7H53v3.1h-8.2v3h8.4V61.9z M70.1,50.9c0,2.4-1.6,3.6-2.5,4c0.8,0.3,1.5,0.8,1.8,1.3
		c0.5,0.7,0.6,1.4,0.6,2.7v2.9h-3.6l0-1.9c0-0.9,0.1-2.2-0.6-2.9c-0.5-0.5-1.3-0.6-2.6-0.6h-3.8v5.4h-3.6v-15h8.2
		c1.8,0,3.2,0,4.3,0.7C69.4,48.3,70.1,49.3,70.1,50.9z M75.8,61.9h-3.6v-15h3.6V61.9z M118.1,61.9h-5.1l-6.8-11.2v11.2H99l-1.4-3.3
		h-7.4l-1.4,3.3h-4.2c-1.7,0-3.9-0.4-5.2-1.7c-1.3-1.3-1.9-3-1.9-5.7c0-2.2,0.4-4.2,1.9-5.9c1.2-1.2,3-1.7,5.4-1.7h3.5v3.2H85
		c-1.3,0-2,0.2-2.8,0.9c-0.6,0.6-1,1.8-1,3.4c0,1.6,0.3,2.8,1,3.5c0.6,0.6,1.6,0.8,2.5,0.8h1.6l5-11.8h5.4l6.1,14.2V46.9h5.4
		l6.3,10.4V46.9h3.7L118.1,61.9L118.1,61.9z M0,64.8h6.1l1.4-3.3h3.1l1.4,3.3h12v-2.5l1.1,2.6h6.2l1.1-2.6v2.6h29.9l0-5.5h0.6
		c0.4,0,0.5,0.1,0.5,0.7v4.7h15.5v-1.3c1.2,0.7,3.2,1.3,5.7,1.3H91l1.4-3.3h3.1l1.4,3.3h12.5v-3.2l1.9,3.2h10V43.9h-9.9v2.5
		l-1.4-2.5H99.8v2.5l-1.3-2.5H84.7c-2.3,0-4.3,0.3-6,1.2v-1.2h-9.5v1.2c-1-0.9-2.5-1.2-4-1.2H30.5l-2.3,5.4l-2.4-5.4H14.9v2.5
		l-1.2-2.5H4.3L0,53.9L0,64.8L0,64.8z"/>
	<path class="st1" d="M127.2,75.8h-6.5c-0.7,0-1.1,0-1.4,0.3c-0.4,0.2-0.5,0.6-0.5,1.1c0,0.6,0.3,0.9,0.8,1.1
		c0.4,0.1,0.8,0.2,1.4,0.2l1.9,0.1c2,0,3.3,0.4,4.1,1.2c0.1,0.1,0.2,0.2,0.3,0.4 M127.2,85.7c-0.9,1.3-2.6,1.9-4.9,1.9h-6.9v-3.2
		h6.9c0.7,0,1.2-0.1,1.4-0.4c0.2-0.2,0.4-0.6,0.4-1c0-0.4-0.2-0.8-0.4-1c-0.3-0.2-0.6-0.3-1.3-0.3c-3.4-0.1-7.5,0.1-7.5-4.6
		c0-2.2,1.4-4.5,5.1-4.5h7.1v-3h-6.6c-2,0-3.4,0.5-4.5,1.2v-1.2h-9.8c-1.6,0-3.4,0.4-4.3,1.2v-1.2H84.6v1.2c-1.4-1-3.7-1.2-4.8-1.2
		H68.2v1.2c-1.1-1.1-3.5-1.2-5-1.2H50.3l-3,3.2l-2.8-3.2H25.3v20.9h18.9l3-3.2l2.9,3.2l11.7,0v-4.9h1.1c1.5,0,3.4,0,5-0.7v5.6h9.6
		v-5.4H78c0.6,0,0.7,0,0.7,0.6v4.8h29.2c1.9,0,3.8-0.5,4.9-1.3v1.3h9.3c1.9,0,3.8-0.3,5.2-1L127.2,85.7L127.2,85.7z M113,79.7
		c0.7,0.7,1.1,1.6,1.1,3.2c0,3.2-2,4.7-5.6,4.7h-7v-3.2h6.9c0.7,0,1.2-0.1,1.5-0.4c0.2-0.2,0.4-0.6,0.4-1c0-0.4-0.2-0.8-0.4-1
		c-0.3-0.2-0.7-0.3-1.3-0.3c-3.3-0.1-7.5,0.1-7.5-4.6c0-2.2,1.4-4.5,5.1-4.5h7.2v3.2h-6.6c-0.7,0-1.1,0-1.4,0.3
		c-0.4,0.2-0.5,0.6-0.5,1.1c0,0.6,0.3,0.9,0.8,1.1c0.4,0.1,0.8,0.2,1.4,0.2l1.9,0.1C110.8,78.6,112.2,78.9,113,79.7z M80.7,78.8
		c-0.5,0.3-1.1,0.3-1.8,0.3h-4.3v-3.4H79c0.6,0,1.3,0,1.7,0.3c0.5,0.2,0.7,0.7,0.7,1.3S81.2,78.5,80.7,78.8z M82.9,80.7
		c0.8,0.3,1.4,0.8,1.8,1.3c0.5,0.7,0.6,1.4,0.6,2.7v3h-3.6v-1.9c0-0.9,0.1-2.2-0.6-2.9c-0.5-0.5-1.3-0.7-2.6-0.7h-3.8v5.5H71v-15
		h8.3c1.8,0,3.1,0.1,4.3,0.7c1.1,0.7,1.8,1.6,1.8,3.3C85.4,79.1,83.8,80.3,82.9,80.7z M87.4,72.7h11.9v3.1h-8.4v2.7h8.2v3.1h-8.2v3
		l8.4,0v3.1H87.4V72.7z M63.3,79.6h-4.6v-3.8h4.7c1.3,0,2.2,0.5,2.2,1.8C65.5,78.9,64.6,79.6,63.3,79.6z M55.1,86.3l-5.5-6.1
		l5.5-5.9V86.3z M40.9,84.5h-8.8v-3h7.9v-3.1h-7.9v-2.7h9l3.9,4.4L40.9,84.5z M69.3,77.6c0,4.2-3.1,5-6.2,5h-4.5v5h-7l-4.4-5l-4.6,5
		H28.5v-15h14.4l4.4,4.9l4.5-4.9h11.4C66.1,72.7,69.3,73.4,69.3,77.6z"/>
</g>
</svg>
